<svg xmlns="http://www.w3.org/2000/svg" version="1.1" xmlns:xlink="http://www.w3.org/1999/xlink" viewBox="0 0 200 200" width="200" height="200"><rect width="200" height="200" fill="url('#gradient')"></rect><defs><linearGradient id="gradient" gradientTransform="rotate(45 0.5 0.5)"><stop offset="0%" stop-color="#c1c2c1"></stop><stop offset="100%" stop-color="#cda55d"></stop></linearGradient></defs><g><g fill="#251a2c" transform="matrix(3.575557710960233,0,0,3.575557710960233,6.15937251824991,125.42159066880131)" stroke="#574c65" stroke-width="0.35"><path d="M5.75 0L1.07 0L1.07-14.22L5.65-14.22Q7.54-14.22 9.04-13.36Q10.55-12.51 11.39-10.95Q12.24-9.39 12.25-7.46L12.25-7.46L12.25-6.81Q12.25-4.85 11.42-3.31Q10.60-1.76 9.10-0.88Q7.60-0.01 5.75 0L5.75 0ZM5.65-11.57L4.50-11.57L4.50-2.64L5.69-2.64Q7.17-2.64 7.96-3.69Q8.75-4.74 8.75-6.81L8.75-6.81L8.75-7.42Q8.75-9.48 7.96-10.53Q7.17-11.57 5.65-11.57L5.65-11.57ZM22.82-8.57L22.82-6.03L17.43-6.03L17.43-2.64L23.80-2.64L23.80 0L14.00 0L14.00-14.22L23.82-14.22L23.82-11.57L17.43-11.57L17.43-8.57L22.82-8.57ZM37.07-14.22L37.07 0L33.66 0L28.62-8.85L28.62 0L25.20 0L25.20-14.22L28.62-14.22L33.65-5.37L33.65-14.22L37.07-14.22ZM41.93-14.22L44.76-3.87L47.59-14.22L51.42-14.22L46.63 0L42.88 0L38.13-14.22L41.93-14.22Z"></path></g></g></svg>